<svg width="194" height="89" viewBox="0 0 194 89" fill="none" xmlns="http://www.w3.org/2000/svg">
<g filter="url(#filter0_di_44_4)">
<path d="M150 56.551H174.5L192 2H150V40.0204V56.551Z" fill="#574A62"/>
<path d="M174.5 56.551H150V40.0204H144.167L127.833 83H192V2L174.5 56.551Z" fill="#887B94"/>
<path d="M115 83L150 2H115V83Z" fill="#A18AB5"/>
<path d="M115 83L150 2M115 83H127.833M115 83V2M150 2V40.0204M150 2H192M150 2H115M150 56.551H174.5L192 2M150 56.551V40.0204M150 56.551V63.1633H174.5L177.5 60M192 2V83H127.833M192 2H115M127.833 83L144.167 40.0204H150" stroke="#211530" stroke-width="4"/>
</g>
<g filter="url(#filter1_d_44_4)">
<path d="M28.1797 20.6875H29.7852L36.6641 37H34.2266L32.5742 32.8984H25.332L23.6914 37H21.3008L28.1797 20.6875ZM31.8242 31.0234L28.9648 23.875L26.0938 31.0234H31.8242ZM39.9922 37.293C39.5234 37.293 39.1328 37.168 38.8203 36.918C38.5156 36.6602 38.3633 36.293 38.3633 35.8164C38.3633 35.332 38.5156 34.9609 38.8203 34.7031C39.1328 34.4453 39.5234 34.3164 39.9922 34.3164C40.4688 34.3164 40.8633 34.4453 41.1758 34.7031C41.4883 34.9609 41.6445 35.332 41.6445 35.8164C41.6445 36.293 41.4883 36.6602 41.1758 36.918C40.8633 37.168 40.4688 37.293 39.9922 37.293ZM52.7891 20.6875H55.1328V34.9375H62.1172V37H52.7891V20.6875ZM66.0078 37.293C65.5391 37.293 65.1484 37.168 64.8359 36.918C64.5312 36.6602 64.3789 36.293 64.3789 35.8164C64.3789 35.332 64.5312 34.9609 64.8359 34.7031C65.1484 34.4453 65.5391 34.3164 66.0078 34.3164C66.4844 34.3164 66.8789 34.4453 67.1914 34.7031C67.5039 34.9609 67.6602 35.332 67.6602 35.8164C67.6602 36.293 67.5039 36.6602 67.1914 36.918C66.8789 37.168 66.4844 37.293 66.0078 37.293ZM78.6992 20.6875H80.1992L86.0117 27.3672L91.8008 20.6875H93.3008V37H90.957V24.5781L90.2656 25.5156L86.0117 30.4727L81.7578 25.5273L81.043 24.5898V37H78.6992V20.6875ZM98 37.293C97.5312 37.293 97.1406 37.168 96.8281 36.918C96.5234 36.6602 96.3711 36.293 96.3711 35.8164C96.3711 35.332 96.5234 34.9609 96.8281 34.7031C97.1406 34.4453 97.5312 34.3164 98 34.3164C98.4766 34.3164 98.8711 34.4453 99.1836 34.7031C99.4961 34.9609 99.6523 35.332 99.6523 35.8164C99.6523 36.293 99.4961 36.6602 99.1836 36.918C98.8711 37.168 98.4766 37.293 98 37.293ZM6.71094 50.6875H17.2461V52.7266H9.05469V57.5312H15.2539V59.5H9.05469V64.9375H17.2461V67H6.71094V50.6875ZM23.5977 60.9297L19.4375 54.9062H22.0977L24.9805 59.2773L28.0625 54.9062H30.6875L26.1875 60.918L30.582 67H27.9336L24.8516 62.5938L21.8281 67H19.168L23.5977 60.9297ZM33.3008 64.8438C33.043 64.3984 32.8359 63.875 32.6797 63.2734C32.5312 62.6719 32.457 61.8867 32.457 60.918C32.457 59.9492 32.6641 59.0586 33.0781 58.2461C33.5 57.4258 34.0469 56.7539 34.7188 56.2305C36.0234 55.2227 37.6445 54.7188 39.582 54.7188C40.5898 54.7188 41.3516 54.7422 41.8672 54.7891C41.8672 54.7891 42.2461 54.8281 43.0039 54.9062V67H40.8945L40.8008 65.6055C40.332 66.2305 39.6172 66.6953 38.6562 67C38.2891 67.1172 37.9102 67.1758 37.5195 67.1758C37.1367 67.1758 36.7578 67.1367 36.3828 67.0586C36.0078 66.9805 35.6328 66.8516 35.2578 66.6719C34.8906 66.4922 34.5391 66.2539 34.2031 65.957C33.8672 65.6523 33.5664 65.2812 33.3008 64.8438ZM40.6602 56.6289C40.1602 56.5664 39.6602 56.5352 39.1602 56.5352C38.668 56.5352 38.1406 56.625 37.5781 56.8047C37.0156 56.9766 36.5352 57.25 36.1367 57.625C35.3086 58.4062 34.8945 59.5977 34.8945 61.1992C34.8945 62.7148 35.25 63.8359 35.9609 64.5625C36.5 65.1016 37.1484 65.3711 37.9062 65.3711C38.8828 65.3711 39.6875 65.0156 40.3203 64.3047C40.4766 64.125 40.5898 63.9648 40.6602 63.8242V56.6289ZM49.1445 57.918L49.1562 67H46.8125V54.9062H48.9688L49.1328 56.2305C49.9922 55.5117 50.9922 55.043 52.1328 54.8242C52.5 54.7539 52.8594 54.7188 53.2109 54.7188C54.6719 54.7188 55.7734 55.3359 56.5156 56.5703C57.875 55.3359 59.2969 54.7188 60.7812 54.7188C62.25 54.7188 63.3203 55.1602 63.9922 56.043C64.6641 56.9414 65 58.4258 65 60.4961V67H62.6562V60.5781C62.6562 58.5469 62.168 57.332 61.1914 56.9336C60.8633 56.8008 60.4805 56.7344 60.043 56.7344C58.9961 56.7344 58.0352 57.1094 57.1602 57.8594V67H54.8164V60.4844C54.8164 59.0938 54.6094 58.1172 54.1953 57.5547C53.7969 57.0078 53.082 56.7344 52.0508 56.7344C51.0273 56.7344 50.0586 57.1289 49.1445 57.918ZM71.2812 71.6875H68.9375V54.9062H71.0469L71.1406 56.2891C71.6094 55.6641 72.3281 55.1992 73.2969 54.8945C73.6719 54.7773 74.0508 54.7188 74.4336 54.7188C74.8242 54.7188 75.207 54.7617 75.582 54.8477C75.957 54.9258 76.3281 55.0586 76.6953 55.2461C77.0625 55.4258 77.4141 55.668 77.75 55.9727C78.0859 56.2695 78.3828 56.6406 78.6406 57.0859C79.2031 58.0469 79.4844 59.2383 79.4844 60.6602C79.4844 62.832 78.7344 64.4922 77.2344 65.6406C75.9062 66.6641 74.2891 67.1758 72.3828 67.1758H71.7969C71.6094 67.1758 71.4375 67.1719 71.2812 67.1641V71.6875ZM71.2812 65.2656C71.5 65.3281 71.9297 65.3594 72.5703 65.3594C73.2109 65.3594 73.8125 65.2695 74.375 65.0898C74.9375 64.9102 75.4141 64.6328 75.8047 64.2578C76.6328 63.4609 77.0469 62.2617 77.0469 60.6602C77.0469 59.1523 76.6875 58.0391 75.9688 57.3203C75.4375 56.7891 74.7891 56.5234 74.0234 56.5234C73.0625 56.5234 72.2656 56.8789 71.6328 57.5898C71.4688 57.7695 71.3516 57.9297 71.2812 58.0703V65.2656ZM83.2812 49.5625H85.625V62.418C85.625 63.9648 85.9766 64.875 86.6797 65.1484C86.9141 65.2422 87.1641 65.2891 87.4297 65.2891C87.6953 65.2891 87.9336 65.2578 88.1445 65.1953V67L87.7109 67.0469C87.5703 67.0625 87.4336 67.0703 87.3008 67.0703C85.8008 67.0703 84.7188 66.5781 84.0547 65.5938C83.5391 64.8203 83.2812 63.7656 83.2812 62.4297V49.5625ZM96.4414 67.1875C92.0195 67.1875 89.8086 65.0273 89.8086 60.707C89.8086 58.8477 90.4219 57.3594 91.6484 56.2422C92.75 55.2266 94.0078 54.7188 95.4219 54.7188C96.9609 54.7188 98.1641 55.2344 99.0312 56.2656C99.8359 57.2266 100.238 58.5117 100.238 60.1211V61.0352H92.2461C92.2461 63.2461 93.1484 64.5977 94.9531 65.0898C95.3828 65.207 96.043 65.2656 96.9336 65.2656C97.832 65.2656 98.7109 65.1445 99.5703 64.9023V66.8828C98.7109 67.0859 97.668 67.1875 96.4414 67.1875ZM97.8945 59.3125C97.8945 58.5625 97.6875 57.9297 97.2734 57.4141C96.7891 56.8203 96.1211 56.5234 95.2695 56.5234C94.3711 56.5234 93.6406 56.8086 93.0781 57.3789C92.5625 57.9102 92.3047 58.5547 92.3047 59.3125H97.8945Z" fill="#574A62"/>
</g>
<defs>
<filter id="filter0_di_44_4" x="104" y="-1" width="90" height="90" filterUnits="userSpaceOnUse" color-interpolation-filters="sRGB">
<feFlood flood-opacity="0" result="BackgroundImageFix"/>
<feColorMatrix in="SourceAlpha" type="matrix" values="0 0 0 0 0 0 0 0 0 0 0 0 0 0 0 0 0 0 127 0" result="hardAlpha"/>
<feOffset dy="4"/>
<feComposite in2="hardAlpha" operator="out"/>
<feColorMatrix type="matrix" values="0 0 0 0 0.129412 0 0 0 0 0.0823529 0 0 0 0 0.188235 0 0 0 0.8 0"/>
<feBlend mode="normal" in2="BackgroundImageFix" result="effect1_dropShadow_44_4"/>
<feBlend mode="normal" in="SourceGraphic" in2="effect1_dropShadow_44_4" result="shape"/>
<feColorMatrix in="SourceAlpha" type="matrix" values="0 0 0 0 0 0 0 0 0 0 0 0 0 0 0 0 0 0 127 0" result="hardAlpha"/>
<feOffset dx="-9" dy="-1"/>
<feGaussianBlur stdDeviation="6.75"/>
<feComposite in2="hardAlpha" operator="arithmetic" k2="-1" k3="1"/>
<feColorMatrix type="matrix" values="0 0 0 0 0 0 0 0 0 0 0 0 0 0 0 0 0 0 0.25 0"/>
<feBlend mode="normal" in2="shape" result="effect2_innerShadow_44_4"/>
</filter>
<filter id="filter1_d_44_4" x="6.71094" y="20.6875" width="93.5273" height="52" filterUnits="userSpaceOnUse" color-interpolation-filters="sRGB">
<feFlood flood-opacity="0" result="BackgroundImageFix"/>
<feColorMatrix in="SourceAlpha" type="matrix" values="0 0 0 0 0 0 0 0 0 0 0 0 0 0 0 0 0 0 127 0" result="hardAlpha"/>
<feOffset dy="1"/>
<feComposite in2="hardAlpha" operator="out"/>
<feColorMatrix type="matrix" values="0 0 0 0 0 0 0 0 0 0 0 0 0 0 0 0 0 0 0.25 0"/>
<feBlend mode="normal" in2="BackgroundImageFix" result="effect1_dropShadow_44_4"/>
<feBlend mode="normal" in="SourceGraphic" in2="effect1_dropShadow_44_4" result="shape"/>
</filter>
</defs>
</svg>
